<svg xmlns="http://www.w3.org/2000/svg" width="24" height="405" viewBox="0 0 24 405">
<g><g>
<path fill="#f97e6b" 
d="M12 0c6.627 0 12 5.373 12 12s-5.373 12-12 12S0 18.627 0 12 5.373 0 12 0zm0 119c6.627 0 12 5.372 12 12 0 6.627-5.373 12-12 12s-12-5.373-12-12c0-6.628 5.373-12 12-12zm0 146c6.627 0 12 5.373 12 12s-5.373 12-12 12-12-5.373-12-12 5.373-12 12-12zm0 116c6.627 0 12 5.373 12 12 0 6.628-5.373 12-12 12s-12-5.372-12-12c0-6.627 5.373-12 12-12zM5 12a7 7 0 1 0 14 0 7 7 0 0 0-14 0zm0 119a7 7 0 1 0 14 0 7 7 0 0 0-14 0zm0 146a7 7 0 1 0 14 0 7 7 0 0 0-14 0zm0 116a7 7 0 1 0 14 0 7 7 0 0 0-14 0zm7-365a3 3 0 0 1 3 3v81a3 3 0 1 1-6 0V31a3 3 0 0 1 3-3zm0 120a3 3 0 0 1 3 3v107a3 3 0 1 1-6 0V151a3 3 0 0 1 3-3zm0 145a3 3 0 0 1 3 3v77a3 3 0 1 1-6 0v-77a3 3 0 0 1 3-3z"/>
</g></g>
</svg>